<svg width="30" height="30" viewBox="0 0 30 30" fill="none" xmlns="http://www.w3.org/2000/svg">
<path d="M15 4.8913C15.3586 4.8913 15.6521 4.59782 15.6521 4.23912V3.91304C15.6521 3.55434 15.3586 3.26086 15 3.26086C14.6413 3.26086 14.3478 3.55434 14.3478 3.91304V4.23912C14.3478 4.59782 14.6413 4.8913 15 4.8913Z" fill="#00B8EF"/>
<path d="M15 25.1087C14.6413 25.1087 14.3478 25.4022 14.3478 25.7609V26.087C14.3478 26.4457 14.6413 26.7391 15 26.7391C15.3586 26.7391 15.6521 26.4457 15.6521 26.087V25.7609C15.6521 25.4022 15.3586 25.1087 15 25.1087Z" fill="#00B8EF"/>
<path d="M4.23912 14.3478H3.91304C3.55434 14.3478 3.26086 14.6413 3.26086 15C3.26086 15.3587 3.55434 15.6522 3.91304 15.6522H4.23912C4.59782 15.6522 4.8913 15.3587 4.8913 15C4.8913 14.6413 4.59782 14.3478 4.23912 14.3478Z" fill="#00B8EF"/>
<path d="M26.0869 14.3478H25.7608C25.4021 14.3478 25.1086 14.6413 25.1086 15C25.1086 15.3587 25.4021 15.6522 25.7608 15.6522H26.0869C26.4456 15.6522 26.7391 15.3587 26.7391 15C26.7391 14.6413 26.4456 14.3478 26.0869 14.3478Z" fill="#00B8EF"/>
<path d="M7.63043 6.71738C7.36956 6.45651 6.97825 6.45651 6.71738 6.71738C6.45651 6.97825 6.45651 7.36955 6.71738 7.63042L6.94564 7.85868C7.07608 7.98912 7.23912 8.05434 7.40217 8.05434C7.56521 8.05434 7.72825 7.98912 7.85869 7.85868C8.11956 7.59781 8.11956 7.20651 7.85869 6.94564L7.63043 6.71738Z" fill="#00B8EF"/>
<path d="M6.94564 22.1413L6.71738 22.3696C6.45651 22.6304 6.45651 23.0217 6.71738 23.2826C6.84782 23.413 7.01086 23.4783 7.1739 23.4783C7.33695 23.4783 7.49999 23.413 7.63043 23.2826L7.85869 23.0543C8.11956 22.7935 8.11956 22.4022 7.85869 22.1413C7.59782 21.8804 7.20651 21.8804 6.94564 22.1413Z" fill="#00B8EF"/>
<path d="M22.3696 6.71738L22.1413 6.94564C21.8805 7.20651 21.8805 7.59781 22.1413 7.85868C22.2718 7.98912 22.4348 8.05434 22.5979 8.05434C22.7609 8.05434 22.9239 7.98912 23.0544 7.85868L23.2826 7.63042C23.5435 7.36955 23.5435 6.97825 23.2826 6.71738C23.0218 6.45651 22.6305 6.45651 22.3696 6.71738Z" fill="#00B8EF"/>
<path d="M15.6521 14.7391V8.80433C15.6521 8.44564 15.3586 8.15216 15 8.15216C14.6413 8.15216 14.3478 8.44564 14.3478 8.80433V15C14.3478 15.163 14.413 15.3261 14.5434 15.4565L21.6847 22.5978C21.8152 22.7282 21.9782 22.7935 22.1412 22.7935C22.3043 22.7935 22.4673 22.7282 22.5978 22.5978C22.8586 22.3369 22.8586 21.9456 22.5978 21.6848L15.6521 14.7391Z" fill="#00B8EF"/>
<path d="M15 0C6.71739 0 0 6.71739 0 15C0 23.2826 6.71739 30 15 30C23.2826 30 30 23.2826 30 15C30 6.71739 23.2826 0 15 0ZM15 28.6957C7.43478 28.6957 1.30435 22.5652 1.30435 15C1.30435 7.43478 7.43478 1.30435 15 1.30435C22.5652 1.30435 28.6957 7.43478 28.6957 15C28.6957 22.5652 22.5652 28.6957 15 28.6957Z" fill="#00B8EF"/>
</svg>
