<svg width="30" height="30" viewBox="0 0 30 30" fill="none" xmlns="http://www.w3.org/2000/svg">
<g clip-path="url(#clip0_2:60)">
<path d="M29.9942 11.4696C29.9911 11.4351 29.9842 11.4011 29.9737 11.3681C29.9668 11.3386 29.9573 11.3098 29.9452 11.282C29.9312 11.2549 29.9145 11.2293 29.8952 11.2055C29.876 11.1773 29.8536 11.1514 29.8287 11.128C29.8207 11.121 29.8172 11.1115 29.8087 11.1045L25 7.36984V3.49917C25 2.67073 24.3284 1.9991 23.4999 1.9991H18.0811L15.9115 0.314498C15.3755 -0.103531 14.6239 -0.103531 14.0879 0.314498L11.9178 1.9991H6.49897C5.67053 1.9991 4.9989 2.67067 4.9989 3.49917V7.3699L0.19168 11.1046C0.183183 11.1116 0.179667 11.1211 0.171698 11.1281C0.146795 11.1514 0.124469 11.1774 0.105191 11.2056C0.0859711 11.2293 0.0692125 11.2549 0.0552079 11.2821C0.0430783 11.3098 0.0335857 11.3387 0.0267299 11.3681C0.0162996 11.4006 0.00944383 11.4342 0.00622101 11.4682C0.00622101 11.4786 0.000244141 11.4877 0.000244141 11.4982V28.5004C0.000947301 28.8185 0.103843 29.1279 0.293755 29.3829C0.296744 29.3874 0.297271 29.393 0.300728 29.3969C0.304244 29.4009 0.311744 29.4054 0.316725 29.4109C0.597638 29.7806 1.03453 29.9985 1.4988 30.0005H28.5002C28.9662 29.9991 29.405 29.7801 29.6862 29.4085C29.6902 29.4035 29.6962 29.402 29.6997 29.397C29.7032 29.392 29.7037 29.3875 29.7067 29.383C29.8966 29.1279 29.9995 28.8185 30.0002 28.5005V11.4996C30.0002 11.4891 29.9947 11.48 29.9942 11.4696ZM14.6994 1.1035C14.874 0.964746 15.1213 0.964746 15.2959 1.1035L16.4495 1.99904H13.5493L14.6994 1.1035ZM1.62478 29.0005L14.6995 18.8444C14.8742 18.7059 15.1213 18.7059 15.296 18.8444L28.3741 29.0005H1.62478ZM29.0002 28.2209L15.9115 18.0554C15.3754 17.6377 14.624 17.6377 14.0879 18.0554L0.998732 28.2209V12.2611L9.19266 18.6239C9.41099 18.7932 9.72519 18.7535 9.89448 18.5352C10.0638 18.3168 10.024 18.0026 9.8057 17.8333L1.48128 11.3695L4.99895 8.63588V12.4996C4.99895 12.7757 5.22285 12.9996 5.49896 12.9996C5.77513 12.9996 5.99897 12.7757 5.99897 12.4996V3.49911C5.99897 3.22295 6.22281 2.99911 6.49897 2.99911H23.4998C23.776 2.99911 23.9998 3.22295 23.9998 3.49911V12.4996C23.9998 12.7757 24.2237 12.9996 24.4998 12.9996C24.776 12.9996 24.9998 12.7757 24.9998 12.4996V8.63588L28.5175 11.3695L20.1786 17.8449C20.0352 17.9536 19.9612 18.131 19.9849 18.3094C20.0087 18.4879 20.1266 18.6397 20.2935 18.7071C20.4605 18.7744 20.6507 18.7469 20.7916 18.6349L29.0001 12.2611V28.2209H29.0002Z" fill="#00B8EF"/>
<path d="M20.9995 11.9989V9.99878C20.9995 6.6849 18.3131 3.99847 14.9992 3.99847C11.6853 3.99847 8.9989 6.6849 8.9989 9.99878C8.9989 13.3127 11.6853 15.9991 14.9992 15.9991C15.2754 15.9991 15.4992 15.7752 15.4992 15.4991C15.4992 15.2229 15.2754 14.9991 14.9992 14.9991C12.2377 14.9991 9.99897 12.7604 9.99897 9.99884C9.99897 7.23729 12.2377 4.9986 14.9992 4.9986C17.7607 4.9986 19.9994 7.23729 19.9994 9.99884V11.9989C19.9994 12.5513 19.5517 12.999 18.9994 12.999C18.447 12.999 17.9993 12.5513 17.9993 11.9989V9.99884C17.9993 9.72267 17.7755 9.49883 17.4993 9.49883C17.2231 9.49883 16.9993 9.72267 16.9993 9.99884C16.9993 11.1034 16.1038 11.9989 14.9992 11.9989C13.8946 11.9989 12.9991 11.1034 12.9991 9.99884C12.9991 8.89423 13.8946 7.99876 14.9992 7.99876C15.2754 7.99876 15.4992 7.77492 15.4992 7.49875C15.4992 7.22258 15.2754 6.99874 14.9992 6.99874C13.6565 6.99576 12.4752 7.88531 12.1072 9.17667C11.7392 10.468 12.274 11.8466 13.4167 12.5519C14.5593 13.2572 16.0314 13.1174 17.0208 12.2095C17.1297 13.267 18.0488 14.0532 19.1103 13.997C20.1719 13.9408 21.0028 13.0619 20.9995 11.9989Z" fill="#00B8EF"/>
</g>
<defs>
<clipPath id="clip0_2:60">
<rect width="30" height="30" fill="white"/>
</clipPath>
</defs>
</svg>
