<svg width="38" height="38" viewBox="0 0 38 38" fill="none" xmlns="http://www.w3.org/2000/svg">
<path d="M35.872 30.6659C35.644 30.2859 35.302 30.0579 34.922 30.0579H33.592V12.9579C33.592 11.6659 32.566 10.6399 31.274 10.6399H21.09C20.824 9.84186 20.71 8.92986 20.634 8.09386C21.546 7.18186 21.508 5.69986 20.596 4.78786C19.684 3.87586 18.202 3.91386 17.29 4.82586C16.416 5.73786 16.416 7.18186 17.29 8.05586C17.252 8.89186 17.138 9.76586 16.834 10.6019H6.764C5.472 10.6019 4.446 11.6279 4.446 12.9199V30.0199H3.116C2.736 30.0199 2.394 30.2479 2.166 30.6279C1.862 31.1599 1.786 32.0339 2.204 32.6799C2.204 32.7179 2.242 32.7559 2.28 32.7559C4.75 35.3779 4.902 35.3779 5.168 35.3779H32.908C33.174 35.3779 33.288 35.3779 35.796 32.7559C35.834 32.7179 35.834 32.7179 35.872 32.6799C36.252 32.0719 36.176 31.1979 35.872 30.6659ZM19 5.20586C19.684 5.20586 20.254 5.77586 20.254 6.45986C20.254 7.14386 19.684 7.71386 19 7.71386C18.316 7.71386 17.746 7.14386 17.746 6.45986C17.746 5.77586 18.316 5.20586 19 5.20586ZM18.354 8.70186C18.772 8.81586 19.228 8.81586 19.608 8.70186C19.646 9.34786 19.76 9.99386 19.95 10.6399H18.012C18.202 9.99386 18.316 9.34786 18.354 8.70186ZM5.51 12.9579C5.51 12.2739 6.08 11.7039 6.764 11.7039H31.274C31.958 11.7039 32.528 12.2739 32.528 12.9579V30.0579H5.51V12.9579ZM34.96 32.1099C34.086 33.0599 33.098 34.0479 32.756 34.3519H5.32C4.978 34.0479 3.99 33.0219 3.116 32.1099C2.926 31.7679 3.04 31.2359 3.154 31.1219H34.922C35.036 31.2359 35.15 31.7679 34.96 32.1099Z" fill="#00B8EF"/>
<path d="M10.298 26.3718H13.11V26.6378C13.11 26.9418 13.338 27.1698 13.642 27.1698C13.946 27.1698 14.174 26.9418 14.174 26.6378V26.3718H27.778C28.082 26.3718 28.31 26.1438 28.31 25.8398C28.31 25.5358 28.082 25.3078 27.778 25.3078H14.174V25.0418C14.174 24.7378 13.946 24.5098 13.642 24.5098C13.338 24.5098 13.11 24.7378 13.11 25.0418V25.3078H10.298C9.99399 25.3078 9.76599 25.5358 9.76599 25.8398C9.76599 26.1438 9.99399 26.3718 10.298 26.3718Z" fill="#00B8EF"/>
<path d="M15.998 21.6599C16.34 21.8879 16.796 21.9259 17.176 21.7359L21.812 19.6459C22.42 19.3799 22.724 18.6199 22.42 18.0119C22.306 17.7459 22.078 17.5179 21.812 17.4039L17.176 15.3139C16.568 15.0479 15.808 15.3139 15.542 15.9219C15.466 16.0739 15.428 16.2639 15.428 16.4159V20.6339C15.428 21.0519 15.656 21.4319 15.998 21.6599ZM16.53 16.4159C16.53 16.3779 16.568 16.3019 16.606 16.2639C16.644 16.2259 16.72 16.2259 16.758 16.2639L21.394 18.3539C21.47 18.3919 21.508 18.5059 21.47 18.5819C21.47 18.6199 21.432 18.6579 21.394 18.6579L16.758 20.7479C16.682 20.7859 16.568 20.7479 16.53 20.6719C16.53 20.6339 16.53 20.6339 16.53 20.5959V16.4159V16.4159Z" fill="#00B8EF"/>
<path d="M30.552 12.9961H7.44802C7.14402 12.9961 6.91602 13.2241 6.91602 13.5281V28.1961C6.91602 28.5001 7.14402 28.7281 7.44802 28.7281H30.514C30.818 28.7281 31.046 28.5001 31.046 28.1961V13.5661C31.084 13.2621 30.818 12.9961 30.552 12.9961ZM29.982 14.0981V22.9901H7.98002V14.0981H29.982ZM29.982 27.7021H7.98002V24.0541H29.982V27.7021Z" fill="#00B8EF"/>
<path d="M13.718 10.4879C14.022 10.4879 14.25 10.2599 14.25 9.95594C14.25 9.80394 14.174 9.65194 14.098 9.57594C12.426 7.97994 12.35 5.31994 13.946 3.64794C13.984 3.60994 14.06 3.53394 14.098 3.49594C14.326 3.30594 14.326 2.96394 14.098 2.73594C13.908 2.50794 13.566 2.50794 13.338 2.73594C11.21 4.74994 11.134 8.05594 13.148 10.1839C13.224 10.2599 13.262 10.2979 13.338 10.3739C13.452 10.4119 13.604 10.4879 13.718 10.4879Z" fill="#00B8EF"/>
<path d="M14.592 9.15808C14.82 9.34808 15.162 9.34808 15.352 9.15808C15.542 8.96808 15.542 8.58808 15.352 8.39808C14.326 7.41008 14.288 5.77608 15.238 4.75008C15.276 4.71208 15.314 4.67408 15.352 4.63608C15.58 4.44608 15.58 4.10408 15.352 3.87608C15.124 3.64808 14.82 3.64808 14.592 3.87608C13.148 5.28208 13.072 7.56208 14.478 9.04408C14.478 9.08208 14.554 9.12008 14.592 9.15808Z" fill="#00B8EF"/>
<path d="M25.1939 6.49816C25.1939 7.63816 24.7379 8.74016 23.9019 9.53816C23.6739 9.72816 23.6739 10.0702 23.8639 10.2982C24.0539 10.5262 24.3959 10.5262 24.6239 10.3362C26.7519 8.32216 26.8279 5.01616 24.8139 2.88816C24.7379 2.81216 24.6999 2.77416 24.6239 2.69816C24.3959 2.50816 24.0539 2.50816 23.8639 2.69816C23.6739 2.92616 23.6739 3.26816 23.8639 3.45816C24.6999 4.25616 25.1939 5.35816 25.1939 6.49816Z" fill="#00B8EF"/>
<path d="M22.648 9.11981C22.838 9.34781 23.18 9.34781 23.408 9.11981C24.852 7.71381 24.928 5.43381 23.522 3.95181C23.484 3.91381 23.446 3.87581 23.408 3.83781C23.18 3.64781 22.838 3.64781 22.648 3.83781C22.458 4.06581 22.458 4.40781 22.648 4.59781C23.674 5.58581 23.712 7.21981 22.762 8.24581C22.724 8.28381 22.686 8.32181 22.648 8.35981C22.458 8.58781 22.458 8.92981 22.648 9.11981Z" fill="#00B8EF"/>
</svg>
