<svg width="38" height="38" viewBox="0 0 38 38" fill="none" xmlns="http://www.w3.org/2000/svg">
<path d="M30.786 15.9479C30.198 15.599 29.496 15.4968 28.833 15.6637C28.17 15.8306 27.5999 16.2529 27.2472 16.8385L26.125 18.6198V6.31432C26.1361 5.7173 25.927 5.1371 25.5377 4.68431C25.1485 4.23152 24.6062 3.93781 24.0143 3.85917C23.4852 3.79967 22.9515 3.92105 22.5002 4.20354C22.3782 3.6817 22.0833 3.21646 21.6635 2.88342C21.2436 2.55039 20.7234 2.36914 20.1875 2.36914C19.6516 2.36914 19.1315 2.55039 18.7116 2.88342C18.2918 3.21646 17.9969 3.6817 17.8749 4.20354C17.4236 3.92105 16.8899 3.79967 16.3608 3.85917C15.7689 3.93781 15.2266 4.23152 14.8373 4.68431C14.4481 5.1371 14.239 5.7173 14.25 6.31432V8.33604C13.8013 8.07658 13.2796 7.97224 12.7657 8.03917C12.1838 8.12332 11.6523 8.41597 11.27 8.86267C10.8878 9.30937 10.6808 9.87971 10.6875 10.4676V25.2342C10.6875 27.241 11.3941 28.2564 12.0205 29.1559C12.5786 29.9604 13.0625 30.6403 13.0625 32.0623V35.031C13.0625 35.1885 13.1251 35.3395 13.2364 35.4509C13.3478 35.5622 13.4988 35.6248 13.6563 35.6248C13.8138 35.6248 13.9648 35.5622 14.0761 35.4509C14.1875 35.3395 14.25 35.1885 14.25 35.031V32.0623C14.25 30.281 13.5821 29.3221 12.9943 28.476C12.4064 27.6299 11.875 26.867 11.875 25.2342V10.4439C11.8697 10.1303 11.9851 9.8267 12.1973 9.59576C12.4094 9.36482 12.7022 9.22419 13.015 9.20292C13.1749 9.19652 13.3345 9.2225 13.4841 9.2793C13.6337 9.33611 13.7703 9.42257 13.8856 9.53348C14.001 9.64439 14.0927 9.77748 14.1553 9.92474C14.218 10.072 14.2502 10.2304 14.25 10.3904V17.7796C14.2443 17.9256 14.2908 18.0688 14.3811 18.1836C14.4714 18.2984 14.5997 18.3772 14.7429 18.406C14.8288 18.4209 14.917 18.4166 15.0012 18.3935C15.0853 18.3704 15.1633 18.329 15.2296 18.2723C15.2959 18.2156 15.349 18.145 15.3849 18.0655C15.4208 17.986 15.4388 17.8995 15.4375 17.8123V6.28761C15.4322 5.97405 15.5476 5.67045 15.7598 5.43951C15.9719 5.20857 16.2647 5.06794 16.5775 5.04667C16.7374 5.04027 16.897 5.06625 17.0466 5.12305C17.1962 5.17986 17.3328 5.26631 17.4481 5.37723C17.5635 5.48814 17.6552 5.62123 17.7178 5.76849C17.7805 5.91575 17.8127 6.07414 17.8125 6.23417V17.1859C17.8068 17.3318 17.8533 17.475 17.9436 17.5898C18.0339 17.7046 18.1622 17.7835 18.3054 17.8123C18.3913 17.8271 18.4795 17.8228 18.5637 17.7997C18.6478 17.7766 18.7258 17.7352 18.7921 17.6785C18.8584 17.6219 18.9115 17.5512 18.9474 17.4717C18.9833 17.3922 19.0013 17.3058 19 17.2185V4.80323C18.9947 4.48968 19.1101 4.18607 19.3223 3.95513C19.5344 3.72419 19.8272 3.58356 20.14 3.56229C20.2999 3.55589 20.4595 3.58187 20.6091 3.63868C20.7587 3.69548 20.8953 3.78194 21.0106 3.89285C21.126 4.00377 21.2177 4.13685 21.2803 4.28411C21.3429 4.43137 21.3752 4.58977 21.375 4.74979V17.1859C21.3693 17.3318 21.4158 17.475 21.5061 17.5898C21.5964 17.7046 21.7247 17.7835 21.8679 17.8123C21.9538 17.8271 22.042 17.8228 22.1262 17.7997C22.2103 17.7766 22.2883 17.7352 22.3546 17.6785C22.4209 17.6219 22.474 17.5512 22.5099 17.4717C22.5458 17.3922 22.5638 17.3058 22.5625 17.2185V6.28761C22.5572 5.97405 22.6726 5.67045 22.8848 5.43951C23.0969 5.20857 23.3897 5.06794 23.7025 5.04667C23.8624 5.04027 24.022 5.06625 24.1716 5.12305C24.3212 5.17986 24.4578 5.26631 24.5731 5.37723C24.6885 5.48814 24.7802 5.62123 24.8428 5.76849C24.9054 5.91575 24.9377 6.07414 24.9375 6.23417V20.4842L24.8396 20.6415C21.755 20.8553 19 23.156 19 26.7185C19.0111 26.8724 19.0772 27.0171 19.1862 27.1261C19.2953 27.2352 19.44 27.3013 19.5938 27.3123C19.6735 27.3191 19.7537 27.3084 19.8288 27.2809C19.9039 27.2535 19.9721 27.2099 20.0286 27.1534C20.0852 27.0969 20.1287 27.0286 20.1562 26.9535C20.1836 26.8784 20.1943 26.7982 20.1875 26.7185C20.1875 24.0467 22.521 21.8171 25.1869 21.8231C25.2845 21.8206 25.38 21.7942 25.4649 21.746C25.5498 21.6978 25.6216 21.6295 25.6738 21.547L28.2625 17.4679C28.4586 17.1554 28.767 16.9298 29.1242 16.8376C29.4815 16.7453 29.8605 16.7935 30.1833 16.9721C30.4944 17.1718 30.7182 17.4819 30.8096 17.84C30.9011 18.1981 30.8534 18.5775 30.6761 18.9018L25.0147 28.7967C24.9634 28.8872 24.9368 28.9895 24.9375 29.0935V34.9984C24.9318 35.1443 24.9783 35.2875 25.0686 35.4023C25.1589 35.5171 25.2872 35.596 25.4304 35.6248C25.5163 35.6396 25.6045 35.6353 25.6887 35.6122C25.7728 35.5891 25.8508 35.5477 25.9171 35.491C25.9834 35.4344 26.0365 35.3637 26.0724 35.2842C26.1083 35.2047 26.1263 35.1183 26.125 35.031V29.2509L31.7033 19.4956C32.4574 18.1656 32.1011 16.7228 30.786 15.9479Z" fill="#00B8EF"/>
<path d="M6.26401 11.7949C5.76761 11.2987 5.37384 10.7095 5.10518 10.0611C4.83652 9.41264 4.69824 8.71762 4.69824 8.01572C4.69824 7.31382 4.83652 6.6188 5.10518 5.97035C5.37384 5.32191 5.76761 4.73274 6.26401 4.2365C6.31917 4.18134 6.38466 4.13758 6.45674 4.10772C6.52882 4.07787 6.60607 4.0625 6.68409 4.0625C6.7621 4.0625 6.83935 4.07787 6.91143 4.10772C6.98351 4.13758 7.049 4.18134 7.10416 4.2365C7.15933 4.29167 7.20309 4.35716 7.23294 4.42924C7.2628 4.50131 7.27817 4.57856 7.27817 4.65658C7.27817 4.7346 7.2628 4.81185 7.23294 4.88392C7.20309 4.956 7.15933 5.02149 7.10416 5.07666C6.71818 5.46261 6.41199 5.92081 6.20309 6.42509C5.99419 6.92938 5.88668 7.46988 5.88668 8.01572C5.88668 8.56156 5.99419 9.10206 6.20309 9.60635C6.41199 10.1106 6.71818 10.5688 7.10416 10.9548C7.21558 11.0662 7.27817 11.2173 7.27817 11.3749C7.27817 11.5324 7.21558 11.6835 7.10416 11.7949C6.99275 11.9064 6.84165 11.9689 6.68409 11.9689C6.52653 11.9689 6.37542 11.9064 6.26401 11.7949V11.7949Z" fill="#00B8EF"/>
<path d="M7.9444 10.1145C7.38785 9.55777 7.0752 8.80279 7.0752 8.01558C7.0752 7.22838 7.38785 6.4734 7.9444 5.91668C8.05582 5.80527 8.20692 5.74268 8.36448 5.74268C8.52204 5.74268 8.67315 5.80527 8.78456 5.91668C8.89597 6.02809 8.95856 6.1792 8.95856 6.33676C8.95856 6.49432 8.89597 6.64542 8.78456 6.75683C8.61895 6.92226 8.48756 7.11872 8.39792 7.33496C8.30828 7.5512 8.26214 7.78298 8.26214 8.01707C8.26214 8.25115 8.30828 8.48294 8.39792 8.69918C8.48756 8.91542 8.61895 9.11187 8.78456 9.2773C8.89597 9.38871 8.95856 9.53982 8.95856 9.69738C8.95856 9.85494 8.89597 10.006 8.78456 10.1175C8.67315 10.2289 8.52204 10.2915 8.36448 10.2915C8.20692 10.2915 8.05582 10.2289 7.9444 10.1175V10.1145Z" fill="#00B8EF"/>
<path d="M4.58371 13.4724C3.86694 12.7557 3.29836 11.9047 2.91045 10.9683C2.52253 10.0318 2.32288 9.02803 2.32288 8.01437C2.32288 7.00072 2.52253 5.99699 2.91045 5.06049C3.29836 4.124 3.86694 3.27308 4.58371 2.55633C4.63888 2.50116 4.70437 2.4574 4.77644 2.42755C4.84852 2.39769 4.92577 2.38232 5.00379 2.38232C5.08181 2.38232 5.15906 2.39769 5.23113 2.42755C5.30321 2.4574 5.3687 2.50116 5.42387 2.55633C5.47903 2.61149 5.52279 2.67698 5.55265 2.74906C5.5825 2.82114 5.59787 2.89839 5.59787 2.9764C5.59787 3.05442 5.5825 3.13167 5.55265 3.20375C5.52279 3.27583 5.47903 3.34132 5.42387 3.39648C4.19927 4.6213 3.51131 6.28237 3.51131 8.01437C3.51131 9.74637 4.19927 11.4074 5.42387 12.6323C5.53528 12.7437 5.59787 12.8948 5.59787 13.0523C5.59787 13.2099 5.53528 13.361 5.42387 13.4724C5.31246 13.5838 5.16135 13.6464 5.00379 13.6464C4.84623 13.6464 4.69512 13.5838 4.58371 13.4724V13.4724Z" fill="#00B8EF"/>
<path d="M30.8958 11.7949C30.8406 11.7398 30.7968 11.6743 30.7669 11.6022C30.7371 11.5302 30.7217 11.4529 30.7217 11.3749C30.7217 11.2968 30.7371 11.2196 30.7669 11.1475C30.7968 11.0754 30.8406 11.0099 30.8958 10.9548C31.2818 10.5688 31.588 10.1106 31.7969 9.60635C32.0058 9.10206 32.1133 8.56156 32.1133 8.01572C32.1133 7.46988 32.0058 6.92938 31.7969 6.42509C31.588 5.92081 31.2818 5.46261 30.8958 5.07666C30.8407 5.02149 30.7969 4.956 30.767 4.88392C30.7372 4.81185 30.7218 4.7346 30.7218 4.65658C30.7218 4.57856 30.7372 4.50131 30.767 4.42924C30.7969 4.35716 30.8407 4.29167 30.8958 4.2365C30.951 4.18134 31.0165 4.13758 31.0886 4.10772C31.1606 4.07787 31.2379 4.0625 31.3159 4.0625C31.3939 4.0625 31.4712 4.07787 31.5432 4.10772C31.6153 4.13758 31.6808 4.18134 31.736 4.2365C32.2324 4.73274 32.6261 5.32191 32.8948 5.97035C33.1635 6.6188 33.3017 7.31382 33.3017 8.01572C33.3017 8.71762 33.1635 9.41264 32.8948 10.0611C32.6261 10.7095 32.2324 11.2987 31.736 11.7949C31.6808 11.8501 31.6153 11.8939 31.5433 11.9238C31.4712 11.9537 31.3939 11.9691 31.3159 11.9691C31.2379 11.9691 31.1606 11.9537 31.0885 11.9238C31.0164 11.8939 30.951 11.8501 30.8958 11.7949Z" fill="#00B8EF"/>
<path d="M29.2155 10.1145C29.1603 10.0594 29.1165 9.9939 29.0866 9.92182C29.0568 9.84974 29.0414 9.77248 29.0414 9.69445C29.0414 9.61642 29.0568 9.53916 29.0866 9.46708C29.1165 9.395 29.1603 9.32952 29.2155 9.27437C29.3811 9.10894 29.5125 8.91249 29.6022 8.69625C29.6918 8.48001 29.7379 8.24822 29.7379 8.01414C29.7379 7.78006 29.6918 7.54827 29.6022 7.33203C29.5125 7.11579 29.3811 6.91933 29.2155 6.7539C29.1041 6.64249 29.0415 6.49139 29.0415 6.33383C29.0415 6.17627 29.1041 6.02516 29.2155 5.91375C29.3269 5.80234 29.478 5.73975 29.6356 5.73975C29.7932 5.73975 29.9443 5.80234 30.0557 5.91375C30.6122 6.47047 30.9249 7.22545 30.9249 8.01265C30.9249 8.79986 30.6122 9.55484 30.0557 10.1116C30.0007 10.167 29.9354 10.211 29.8634 10.2411C29.7915 10.2713 29.7142 10.2869 29.6362 10.2872C29.5582 10.2875 29.4809 10.2724 29.4087 10.2427C29.3365 10.2131 29.2709 10.1695 29.2155 10.1145Z" fill="#00B8EF"/>
<path d="M32.5761 13.4724C32.5209 13.4173 32.4771 13.3518 32.4472 13.2797C32.4174 13.2076 32.402 13.1304 32.402 13.0523C32.402 12.9743 32.4174 12.8971 32.4472 12.825C32.4771 12.7529 32.5209 12.6874 32.5761 12.6323C33.8007 11.4074 34.4887 9.74637 34.4887 8.01437C34.4887 6.28237 33.8007 4.6213 32.5761 3.39648C32.4647 3.28507 32.4021 3.13396 32.4021 2.9764C32.4021 2.81884 32.4647 2.66774 32.5761 2.55633C32.6875 2.44491 32.8386 2.38232 32.9962 2.38232C33.1538 2.38232 33.3049 2.44491 33.4163 2.55633C34.133 3.27308 34.7016 4.124 35.0895 5.06049C35.4775 5.99699 35.6771 7.00072 35.6771 8.01437C35.6771 9.02803 35.4775 10.0318 35.0895 10.9683C34.7016 11.9047 34.133 12.7557 33.4163 13.4724C33.3611 13.5276 33.2956 13.5714 33.2236 13.6013C33.1515 13.6312 33.0742 13.6466 32.9962 13.6466C32.9182 13.6466 32.8409 13.6312 32.7688 13.6013C32.6967 13.5714 32.6313 13.5276 32.5761 13.4724Z" fill="#00B8EF"/>
</svg>
