<svg width="38" height="38" viewBox="0 0 38 38" fill="none" xmlns="http://www.w3.org/2000/svg">
<path d="M30.3223 11.0684C29.7718 10.516 29.1177 10.0777 28.3974 9.77869C27.6771 9.47963 26.9049 9.32568 26.1251 9.32568C25.3452 9.32568 24.573 9.47963 23.8528 9.77869C23.1325 10.0777 22.4784 10.516 21.9279 11.0684L22.7698 11.9056C23.21 11.4644 23.7329 11.1144 24.3085 10.8755C24.8841 10.6367 25.5013 10.5138 26.1245 10.5138C26.7477 10.5138 27.3648 10.6367 27.9405 10.8755C28.5161 11.1144 29.039 11.4644 29.4792 11.9056L30.3223 11.0684Z" fill="#00B8EF"/>
<path d="M28.6443 12.7397C27.9746 12.0745 27.0689 11.7012 26.125 11.7012C25.1811 11.7012 24.2754 12.0745 23.6057 12.7397L24.4405 13.584C24.8951 13.1523 25.4981 12.9116 26.125 12.9116C26.7519 12.9116 27.3549 13.1523 27.8095 13.584L28.6443 12.7397Z" fill="#00B8EF"/>
<path d="M25.2854 14.424L26.125 15.2635L26.9645 14.424C26.7384 14.2079 26.4377 14.0874 26.125 14.0874C25.8122 14.0874 25.5115 14.2079 25.2854 14.424V14.424Z" fill="#00B8EF"/>
<path d="M6.36018 27.6582L5.23206 28.021C5.92428 30.1632 7.30884 32.0145 9.16802 33.284L9.83421 32.3001C8.19404 31.1803 6.97211 29.5476 6.36018 27.6582V27.6582Z" fill="#00B8EF"/>
<path d="M24.3438 27.2964V27.9062C24.3438 28.3786 24.5315 28.8317 24.8655 29.1657C25.1996 29.4998 25.6526 29.6875 26.125 29.6875C26.5975 29.6875 27.0505 29.4998 27.3846 29.1657C27.7186 28.8317 27.9063 28.3786 27.9063 27.9062V27.2964C27.9085 26.9509 28.0435 26.6195 28.2833 26.3708C28.8041 25.8245 29.0944 25.0985 29.0938 24.3437C29.0938 23.924 29.0047 23.5091 28.8326 23.1263C28.6604 22.7435 28.4091 22.4016 28.0951 22.1231C27.977 22.0185 27.8222 21.9652 27.6647 21.9747C27.5073 21.9843 27.3601 22.056 27.2555 22.1741C27.151 22.2922 27.0976 22.4471 27.1072 22.6045C27.1168 22.7619 27.1885 22.9091 27.3066 23.0137C27.4948 23.1805 27.6455 23.3853 27.7489 23.6145C27.8522 23.8437 27.9059 24.0922 27.9063 24.3437C27.9063 24.7943 27.7328 25.2277 27.4218 25.5538C27.2635 25.7252 27.1292 25.9173 27.0228 26.125H25.2344C25.1311 25.9217 24.9994 25.7341 24.8431 25.568C24.6309 25.3499 24.4787 25.0806 24.4013 24.7863C24.3239 24.4919 24.3239 24.1826 24.4014 23.8883C24.4867 23.55 24.6716 23.2451 24.9322 23.0131C25.0478 22.9076 25.1171 22.7608 25.1251 22.6044C25.133 22.4481 25.0788 22.295 24.9744 22.1784C24.87 22.0618 24.7238 21.9911 24.5676 21.9817C24.4113 21.9724 24.2577 22.0251 24.1401 22.1284C23.7005 22.5198 23.39 23.0353 23.2495 23.6069C23.1262 24.0961 23.1297 24.6087 23.2596 25.0963C23.3894 25.5838 23.6414 26.0302 23.9917 26.3933C24.2221 26.6371 24.3484 26.961 24.3438 27.2964ZM26.125 28.5C25.9676 28.5 25.8165 28.4374 25.7052 28.326C25.5938 28.2147 25.5313 28.0637 25.5313 27.9062V27.3125H26.7188V27.9062C26.7188 28.0637 26.6562 28.2147 26.5449 28.326C26.4335 28.4374 26.2825 28.5 26.125 28.5Z" fill="#00B8EF"/>
<path d="M20.1875 17.8125V19.5344C19.0114 18.0678 18.3817 16.2379 18.4063 14.3581V11.875C18.5637 11.875 18.7148 11.8124 18.8261 11.7011C18.9375 11.5897 19 11.4387 19 11.2813C19 11.1238 18.9375 10.9728 18.8261 10.8614C18.7148 10.7501 18.5637 10.6875 18.4063 10.6875V9.5C18.5637 9.5 18.7148 9.43745 18.8261 9.3261C18.9375 9.21475 19 9.06372 19 8.90625C19 8.74878 18.9375 8.59776 18.8261 8.48641C18.7148 8.37506 18.5637 8.3125 18.4063 8.3125V7.125C18.5637 7.125 18.7148 7.06245 18.8261 6.9511C18.9375 6.83975 19 6.68872 19 6.53125C19 6.37378 18.9375 6.22276 18.8261 6.11141C18.7148 6.00006 18.5637 5.9375 18.4063 5.9375H18.3469C18.2271 5.35908 17.9377 4.82944 17.5157 4.41617C17.0936 4.00289 16.558 3.72472 15.9772 3.61713C15.8528 2.93497 15.493 2.31808 14.9605 1.87393C14.428 1.42979 13.7565 1.18652 13.0631 1.18652C12.3697 1.18652 11.6982 1.42979 11.1657 1.87393C10.6332 2.31808 10.2734 2.93497 10.149 3.61713C9.56794 3.7245 9.03209 4.00259 8.60981 4.41588C8.18753 4.82917 7.89798 5.35891 7.77813 5.9375H7.71876C7.56128 5.9375 7.41026 6.00006 7.29891 6.11141C7.18756 6.22276 7.12501 6.37378 7.12501 6.53125C7.12501 6.68872 7.18756 6.83975 7.29891 6.9511C7.41026 7.06245 7.56128 7.125 7.71876 7.125V8.3125C7.56128 8.3125 7.41026 8.37506 7.29891 8.48641C7.18756 8.59776 7.12501 8.74878 7.12501 8.90625C7.12501 9.06372 7.18756 9.21475 7.29891 9.3261C7.41026 9.43745 7.56128 9.5 7.71876 9.5V10.6875C7.56128 10.6875 7.41026 10.7501 7.29891 10.8614C7.18756 10.9728 7.12501 11.1238 7.12501 11.2813C7.12501 11.4387 7.18756 11.5897 7.29891 11.7011C7.41026 11.8124 7.56128 11.875 7.71876 11.875V14.5053C7.68335 16.5558 6.89729 18.5221 5.50941 20.0319C4.22098 21.4865 3.37996 23.2822 3.08742 25.2033C2.79488 27.1243 3.06326 29.0889 3.86031 30.8611C4.65736 32.6333 5.94917 34.1376 7.58053 35.1934C9.21189 36.2491 11.1134 36.8113 13.0566 36.8125C13.2193 36.8125 13.3821 36.8085 13.5452 36.8006C15.7923 36.6855 17.9355 35.8186 19.6306 34.3389C19.8096 34.4018 19.9977 34.4351 20.1875 34.4375V35.0313C20.1875 35.1887 20.2501 35.3397 20.3615 35.451L21.549 36.6385C21.661 36.7467 21.8109 36.8065 21.9666 36.8052C22.1223 36.8038 22.2712 36.7414 22.3813 36.6313C22.4914 36.5212 22.5538 36.3723 22.5552 36.2166C22.5565 36.0609 22.4967 35.911 22.3885 35.799L21.375 34.7854V34.4375H26.125V33.25H23.047C23.1927 32.8676 23.1927 32.4449 23.047 32.0625H30.2813C30.484 32.0605 30.6849 32.0236 30.875 31.9533V33.25H27.3125V34.4375H30.875C31.19 34.4375 31.492 34.3124 31.7147 34.0897C31.9374 33.867 32.0625 33.5649 32.0625 33.25V26.7188C32.063 26.3505 32.1773 25.9913 32.3899 25.6906C32.6025 25.3899 32.903 25.1623 33.25 25.039V34.7854L32.2365 35.799C32.1798 35.8537 32.1345 35.9193 32.1034 35.9917C32.0723 36.0641 32.0559 36.1421 32.0552 36.2209C32.0546 36.2997 32.0696 36.3779 32.0994 36.4509C32.1293 36.5238 32.1734 36.5901 32.2291 36.6459C32.2849 36.7016 32.3512 36.7457 32.4241 36.7756C32.4971 36.8054 32.5753 36.8205 32.6541 36.8198C32.733 36.8191 32.8109 36.8027 32.8833 36.7716C32.9558 36.7405 33.0213 36.6952 33.076 36.6385L34.2635 35.451C34.3749 35.3397 34.4375 35.1887 34.4375 35.0313V24.3438C34.4375 24.1863 34.375 24.0353 34.2636 23.9239C34.1523 23.8126 34.0012 23.75 33.8438 23.75C33.1993 23.7522 32.5734 23.9662 32.0625 24.3592V17.8125C32.0625 17.4976 31.9374 17.1955 31.7147 16.9728C31.492 16.7501 31.19 16.625 30.875 16.625H29.7065V17.8125H30.875V19.1093C30.6849 19.0389 30.484 19.002 30.2813 19H21.9688C21.766 19.002 21.5652 19.0389 21.375 19.1093V17.8125H28.5V16.625H21.375C21.0601 16.625 20.758 16.7501 20.5353 16.9728C20.3126 17.1955 20.1875 17.4976 20.1875 17.8125ZM21.9688 27.9063C21.9688 28.0637 21.9062 28.2147 21.7949 28.3261C21.6835 28.4374 21.5325 28.5 21.375 28.5H20.1875C20.03 28.5 19.879 28.4374 19.7677 28.3261C19.6563 28.2147 19.5938 28.0637 19.5938 27.9063C19.5938 27.7488 19.6563 27.5978 19.7677 27.4864C19.879 27.3751 20.03 27.3125 20.1875 27.3125H21.375C21.5325 27.3125 21.6835 27.3751 21.7949 27.4864C21.9062 27.5978 21.9688 27.7488 21.9688 27.9063ZM19.5938 30.2813C19.5938 30.1238 19.6563 29.9728 19.7677 29.8614C19.879 29.7501 20.03 29.6875 20.1875 29.6875H21.375C21.5325 29.6875 21.6835 29.7501 21.7949 29.8614C21.9062 29.9728 21.9688 30.1238 21.9688 30.2813C21.9688 30.4387 21.9062 30.5897 21.7949 30.7011C21.6835 30.8124 21.5325 30.875 21.375 30.875H20.1875C20.03 30.875 19.879 30.8124 19.7677 30.7011C19.6563 30.5897 19.5938 30.4387 19.5938 30.2813ZM21.375 26.125H20.1875C20.03 26.125 19.879 26.0624 19.7677 25.9511C19.6563 25.8397 19.5938 25.6887 19.5938 25.5313C19.5938 25.3738 19.6563 25.2228 19.7677 25.1114C19.879 25.0001 20.03 24.9375 20.1875 24.9375H21.375C21.5325 24.9375 21.6835 25.0001 21.7949 25.1114C21.9062 25.2228 21.9688 25.3738 21.9688 25.5313C21.9688 25.6887 21.9062 25.8397 21.7949 25.9511C21.6835 26.0624 21.5325 26.125 21.375 26.125ZM13.0625 2.375C13.4296 2.37652 13.7873 2.49143 14.0865 2.70399C14.3858 2.91656 14.6121 3.2164 14.7345 3.5625H11.3905C11.5129 3.2164 11.7392 2.91656 12.0385 2.70399C12.3378 2.49143 12.6954 2.37652 13.0625 2.375V2.375ZM10.6875 4.75H15.4375C15.8046 4.75152 16.1623 4.86643 16.4615 5.07899C16.7608 5.29156 16.9871 5.5914 17.1095 5.9375H9.01551C9.13787 5.5914 9.36418 5.29156 9.66347 5.07899C9.96276 4.86643 10.3204 4.75152 10.6875 4.75V4.75ZM8.90626 7.125H17.2188V8.3125H8.90626V7.125ZM8.90626 9.5H17.2188V10.6875H8.90626V9.5ZM17.2188 11.875V13.6563H8.90626V11.875H17.2188ZM15.4375 21.9688H16.0313C16.1487 21.9688 16.2635 22.0036 16.3611 22.0688C16.4588 22.1341 16.5349 22.2268 16.5798 22.3353C16.6248 22.4438 16.6365 22.5632 16.6136 22.6783C16.5907 22.7935 16.5341 22.8993 16.4511 22.9823C16.3681 23.0654 16.2623 23.1219 16.1471 23.1448C16.0319 23.1678 15.9125 23.156 15.804 23.1111C15.6955 23.0661 15.6028 22.99 15.5376 22.8924C15.4723 22.7947 15.4375 22.6799 15.4375 22.5625V21.9688ZM14.25 20.7813H11.875V14.8438H14.25V20.7813ZM13.49 35.6149C11.7403 35.7004 10.0042 35.2675 8.49942 34.3706C6.99461 33.4737 5.78796 32.1527 5.03068 30.573C4.27339 28.9933 3.99915 27.2253 4.24232 25.4904C4.48549 23.7556 5.23525 22.131 6.39766 20.8204C7.89755 19.1774 8.78156 17.0653 8.89913 14.8438H10.6875V20.7813H10.0938C9.74146 20.7813 9.39707 20.8857 9.10415 21.0814C8.81122 21.2772 8.58291 21.5554 8.4481 21.8808C8.31328 22.2063 8.278 22.5645 8.34673 22.91C8.41546 23.2555 8.58511 23.5729 8.83422 23.822C9.08333 24.0711 9.40072 24.2408 9.74625 24.3095C10.0918 24.3783 10.4499 24.343 10.7754 24.2082C11.1009 24.0733 11.3791 23.845 11.5748 23.5521C11.7705 23.2592 11.875 22.9148 11.875 22.5625V21.9688H14.25V22.5625C14.25 22.9148 14.3545 23.2592 14.5502 23.5521C14.7459 23.845 15.0241 24.0733 15.3496 24.2082C15.6751 24.343 16.0332 24.3783 16.3788 24.3095C16.7243 24.2408 17.0417 24.0711 17.2908 23.822C17.5399 23.5729 17.7096 23.2555 17.7783 22.91C17.847 22.5645 17.8117 22.2063 17.6769 21.8808C17.5421 21.5554 17.3138 21.2772 17.0209 21.0814C16.7279 20.8857 16.3836 20.7813 16.0313 20.7813H15.4375V14.8438H17.2306C17.3037 17.0058 18.141 19.072 19.5938 20.675C19.6531 20.745 19.852 21.0502 19.9696 21.2325C20.0474 21.3513 20.1222 21.47 20.1863 21.5626V23.75C19.8418 23.7485 19.5043 23.8473 19.2151 24.0345C18.9258 24.2216 18.6973 24.4889 18.5575 24.8038C18.4177 25.1187 18.3727 25.4675 18.4278 25.8075C18.483 26.1476 18.636 26.4642 18.8682 26.7188C18.5704 27.0425 18.405 27.4663 18.405 27.9063C18.405 28.3462 18.5704 28.77 18.8682 29.0938C18.5704 29.4175 18.405 29.8413 18.405 30.2813C18.405 30.7212 18.5704 31.145 18.8682 31.4688C18.6066 31.7526 18.4462 32.1149 18.4119 32.4993C18.3777 32.8838 18.4715 33.2688 18.6788 33.5944C17.2122 34.8095 15.3922 35.5182 13.49 35.6149V35.6149ZM10.6875 21.9688V22.5625C10.6875 22.6799 10.6527 22.7947 10.5874 22.8924C10.5222 22.99 10.4295 23.0661 10.321 23.1111C10.2125 23.156 10.0931 23.1678 9.97792 23.1448C9.86275 23.1219 9.75695 23.0654 9.67391 22.9823C9.59087 22.8993 9.53433 22.7935 9.51142 22.6783C9.48851 22.5632 9.50026 22.4438 9.5452 22.3353C9.59014 22.2268 9.66624 22.1341 9.76389 22.0688C9.86153 22.0036 9.97632 21.9688 10.0938 21.9688H10.6875ZM20.1875 33.25C20.03 33.25 19.879 33.1874 19.7677 33.0761C19.6563 32.9647 19.5938 32.8137 19.5938 32.6563C19.5938 32.4988 19.6563 32.3478 19.7677 32.2364C19.879 32.1251 20.03 32.0625 20.1875 32.0625H21.375C21.5325 32.0625 21.6835 32.1251 21.7949 32.2364C21.9062 32.3478 21.9688 32.4988 21.9688 32.6563C21.9688 32.8137 21.9062 32.9647 21.7949 33.0761C21.6835 33.1874 21.5325 33.25 21.375 33.25H20.1875ZM21.9688 20.1875H30.2813C30.4387 20.1875 30.5898 20.2501 30.7011 20.3614C30.8125 20.4728 30.875 20.6238 30.875 20.7813V30.2813C30.875 30.4387 30.8125 30.5897 30.7011 30.7011C30.5898 30.8124 30.4387 30.875 30.2813 30.875H23.047C23.159 30.5743 23.185 30.2484 23.1221 29.9337C23.0591 29.6191 22.9098 29.3282 22.6908 29.0938C22.9886 28.77 23.1539 28.3462 23.1539 27.9063C23.1539 27.4663 22.9886 27.0425 22.6908 26.7188C22.9228 26.4644 23.0758 26.148 23.131 25.8081C23.1863 25.4683 23.1414 25.1197 23.0019 24.8049C22.8624 24.4901 22.6343 24.2228 22.3454 24.0354C22.0565 23.8481 21.7193 23.7489 21.375 23.75V20.7813C21.375 20.6238 21.4376 20.4728 21.5489 20.3614C21.6603 20.2501 21.8113 20.1875 21.9688 20.1875Z" fill="#00B8EF"/>
<path d="M26.125 23.75C26.2825 23.75 26.4335 23.6874 26.5448 23.5761C26.6562 23.4647 26.7188 23.3137 26.7188 23.1562V21.375C26.7188 21.2175 26.6562 21.0665 26.5448 20.9552C26.4335 20.8438 26.2825 20.7812 26.125 20.7812C25.9675 20.7812 25.8165 20.8438 25.7052 20.9552C25.5938 21.0665 25.5312 21.2175 25.5312 21.375V23.1562C25.5312 23.3137 25.5938 23.4647 25.7052 23.5761C25.8165 23.6874 25.9675 23.75 26.125 23.75Z" fill="#00B8EF"/>
</svg>
