<svg width="38" height="38" viewBox="0 0 38 38" fill="none" xmlns="http://www.w3.org/2000/svg">
<path d="M4.82415 24.9496C4.82415 24.5525 4.83899 24.1517 4.87239 23.7584C4.88723 23.5691 4.90579 23.3836 4.92805 23.198C4.93176 23.1646 4.93547 23.1312 4.93918 23.0978C4.95774 22.9308 4.92063 23.2092 4.94661 23.0422C4.96145 22.942 4.97629 22.8418 4.99114 22.7416C5.10989 21.9994 5.28801 21.2646 5.5218 20.5484C5.64055 20.1885 5.77415 19.8322 5.91516 19.4797C5.92258 19.4611 5.95598 19.3795 5.91516 19.476C5.93372 19.4314 5.95227 19.3869 5.97454 19.3387C6.00793 19.2644 6.04133 19.1902 6.07473 19.1123C6.15637 18.9342 6.24172 18.756 6.33079 18.5816C6.66106 17.9285 7.04329 17.3014 7.46633 16.7039C7.57024 16.5592 7.67415 16.4144 7.78547 16.2734C7.72239 16.3551 7.77434 16.2846 7.78918 16.2697C7.81887 16.2326 7.84856 16.1918 7.87825 16.1547C7.93762 16.0805 8.00071 16.0025 8.06379 15.9283C8.30129 15.6426 8.54993 15.3642 8.80969 15.0971C9.05832 14.841 9.31438 14.5961 9.57786 14.3586C9.71145 14.2398 9.84504 14.1248 9.98235 14.0098C10.0454 13.9578 10.1085 13.9058 10.1716 13.8576C10.2087 13.8279 10.2458 13.7982 10.2866 13.7685C10.3126 13.75 10.3386 13.7277 10.3646 13.7092C10.3163 13.7463 10.3163 13.7463 10.3683 13.7055C10.9472 13.2713 11.5521 12.8705 12.1829 12.5217C12.5058 12.3435 12.8323 12.1803 13.17 12.0244C13.2443 11.991 13.3185 11.9576 13.3964 11.9242C13.4409 11.9056 13.4855 11.8834 13.5337 11.8648C13.4187 11.9131 13.5708 11.85 13.582 11.8463C13.7489 11.7795 13.9197 11.7127 14.0904 11.6496C14.7954 11.3935 15.5154 11.1894 16.2501 11.041C16.432 11.0039 16.6138 10.9705 16.7993 10.9408C16.8921 10.926 16.9849 10.9111 17.0739 10.9C17.0999 10.8963 17.215 10.8814 17.1036 10.8963C17.1704 10.8889 17.2372 10.8777 17.3077 10.8703C17.6825 10.8258 18.0611 10.7998 18.4396 10.7849C19.2152 10.7553 19.9945 10.7849 20.7663 10.8777C20.8183 10.8851 20.8665 10.8889 20.9185 10.8963C20.8109 10.8814 20.8999 10.8926 20.9222 10.8963C21.0224 10.9111 21.1226 10.926 21.2228 10.9408C21.4157 10.9705 21.605 11.0076 21.7943 11.0447C22.1616 11.1189 22.529 11.208 22.8927 11.3119C23.2415 11.4121 23.5904 11.5234 23.9318 11.6496C24.1025 11.7127 24.2695 11.7758 24.4402 11.8463C24.4513 11.85 24.6034 11.9131 24.4884 11.8648C24.5255 11.8797 24.5626 11.8982 24.5997 11.9131C24.6962 11.9539 24.7964 11.9984 24.8929 12.043C25.5609 12.351 26.2029 12.7072 26.8152 13.1117C27.112 13.3084 27.4052 13.5162 27.6872 13.7314C27.5907 13.6572 27.7169 13.7537 27.728 13.7648C27.7614 13.7908 27.7911 13.8168 27.8245 13.839C27.895 13.8947 27.9618 13.9504 28.0323 14.0098C28.1808 14.1322 28.3292 14.2621 28.4739 14.392C29.0046 14.867 29.4982 15.3828 29.9546 15.932C30.0177 16.0062 30.0771 16.0805 30.1402 16.1584C30.1661 16.1918 30.1921 16.2215 30.2144 16.2549C30.2292 16.2771 30.296 16.3625 30.2329 16.2771C30.3517 16.433 30.4667 16.5889 30.578 16.7484C30.7859 17.0416 30.9788 17.3385 31.1644 17.6465C31.3573 17.9693 31.5392 18.2959 31.7062 18.6299C31.7841 18.782 31.8583 18.9379 31.9288 19.0937C31.9659 19.1754 32.003 19.257 32.0402 19.3424C32.0587 19.3869 32.081 19.4314 32.0995 19.4797C32.0624 19.3906 32.107 19.4982 32.1181 19.5279C32.4001 20.2182 32.6302 20.9307 32.8046 21.6543C32.8937 22.0217 32.9679 22.3928 33.0273 22.7676C33.0421 22.8603 33.057 22.9531 33.0681 23.0459C33.0904 23.2129 33.057 22.9308 33.0755 23.1015C33.0792 23.1349 33.0829 23.1683 33.0866 23.2017C33.1126 23.4058 33.1312 23.6099 33.146 23.8141C33.1757 24.1926 33.1905 24.5748 33.1905 24.957C33.1905 25.2465 33.4466 25.5285 33.7472 25.5137C34.0478 25.4988 34.3038 25.2687 34.3038 24.957C34.3001 21.8064 33.3204 18.6744 31.4835 16.1101C29.6763 13.5867 27.1491 11.6533 24.2323 10.5846C21.245 9.48983 17.8978 9.3785 14.84 10.2469C11.8749 11.0744 9.19192 12.8185 7.23997 15.1787C5.22864 17.6131 4.00774 20.6078 3.7554 23.7547C3.722 24.1517 3.70715 24.5488 3.70715 24.9459C3.70715 25.2353 3.96321 25.5174 4.26379 25.5025C4.56809 25.4914 4.82415 25.2613 4.82415 24.9496Z" fill="#00B8EF"/>
<path d="M4.26753 25.5054C4.95406 25.5054 5.63687 25.5054 6.32339 25.5054C6.61285 25.5054 6.89488 25.2493 6.88004 24.9487C6.86519 24.6481 6.63511 24.3921 6.32339 24.3921C5.63687 24.3921 4.95406 24.3921 4.26753 24.3921C3.97808 24.3921 3.69604 24.6481 3.71089 24.9487C3.72573 25.2493 3.95581 25.5054 4.26753 25.5054Z" fill="#00B8EF"/>
<path d="M31.6763 25.5054C32.3629 25.5054 33.0457 25.5054 33.7322 25.5054C34.0216 25.5054 34.3037 25.2493 34.2888 24.9487C34.274 24.6481 34.0439 24.3921 33.7322 24.3921C33.0457 24.3921 32.3629 24.3921 31.6763 24.3921C31.3869 24.3921 31.1049 24.6481 31.1197 24.9487C31.1345 25.2493 31.3646 25.5054 31.6763 25.5054Z" fill="#00B8EF"/>
<path d="M19.5566 12.2722C19.5566 11.5857 19.5566 10.9029 19.5566 10.2164C19.5566 9.92693 19.3006 9.6449 19 9.65974C18.6994 9.67458 18.4434 9.90466 18.4434 10.2164C18.4434 10.9029 18.4434 11.5857 18.4434 12.2722C18.4434 12.5617 18.6994 12.8437 19 12.8289C19.3006 12.814 19.5566 12.584 19.5566 12.2722Z" fill="#00B8EF"/>
<path d="M10.4313 15.5901C9.94517 15.1077 9.45903 14.6215 8.97661 14.1391C8.76509 13.9276 8.40142 13.9276 8.18989 14.1391C7.97837 14.3506 7.97837 14.7143 8.18989 14.9258C8.67603 15.412 9.15845 15.8944 9.64458 16.3805C9.8561 16.592 10.2198 16.592 10.4313 16.3805C10.6428 16.1653 10.6428 15.8053 10.4313 15.5901Z" fill="#00B8EF"/>
<path d="M28.3588 16.3766C28.845 15.8905 29.3274 15.4081 29.8135 14.9219C30.025 14.7104 30.025 14.3467 29.8135 14.1352C29.602 13.9237 29.2383 13.9237 29.0268 14.1352C28.5407 14.6213 28.0582 15.1038 27.5721 15.5899C27.3606 15.8014 27.3606 16.1651 27.5721 16.3766C27.7836 16.5918 28.1436 16.5918 28.3588 16.3766Z" fill="#00B8EF"/>
<path d="M20.5362 25.6912C20.5362 25.7432 20.5362 25.7951 20.5288 25.8434C20.5288 25.8619 20.4991 26.0215 20.5251 25.8953C20.5102 25.977 20.4917 26.0586 20.4694 26.1365C20.4545 26.1848 20.4397 26.2293 20.4211 26.2776C20.3729 26.4223 20.4508 26.2182 20.41 26.2998C20.3618 26.3926 20.3135 26.4854 20.2542 26.5744C20.2542 26.5707 20.1614 26.6969 20.2133 26.6338C20.2616 26.5707 20.1614 26.6895 20.1651 26.6895C20.1057 26.7563 20.0426 26.8156 19.9758 26.875C19.9573 26.8936 19.8719 26.9567 19.9573 26.8936C19.9202 26.9233 19.8794 26.9492 19.8385 26.9752C19.7569 27.0272 19.6715 27.0717 19.5825 27.1125C19.6938 27.0606 19.5491 27.1237 19.5342 27.1274C19.4971 27.1422 19.4563 27.1533 19.4155 27.1645C19.3747 27.1756 19.3376 27.1867 19.2967 27.1942C19.2819 27.1979 19.1186 27.2239 19.2485 27.209C19.1631 27.2201 19.0778 27.2239 18.9924 27.2239C18.9368 27.2239 18.8811 27.2201 18.8292 27.2164C18.7624 27.209 18.7587 27.209 18.818 27.2164C18.7921 27.2127 18.7661 27.209 18.7401 27.2016C18.6436 27.183 18.5508 27.1571 18.4581 27.1274C18.4469 27.1237 18.2948 27.0569 18.3987 27.1051C18.369 27.0903 18.3356 27.0754 18.3059 27.0606C18.2131 27.0123 18.1278 26.9567 18.0424 26.8973C18.061 26.9121 18.113 26.9604 18.035 26.8899C17.9831 26.8453 17.9348 26.8008 17.8866 26.7488C17.4079 26.2553 17.3337 25.45 17.6973 24.8637C17.7159 24.834 17.7344 24.808 17.753 24.7783C17.8383 24.6447 17.6825 24.8488 17.7901 24.7301C17.8458 24.667 17.9051 24.6039 17.9682 24.5445C18.0053 24.5111 18.0424 24.474 18.0833 24.4443C17.9905 24.5149 18.1278 24.4184 18.1352 24.4109C18.2206 24.3553 18.3133 24.3033 18.4061 24.2625C18.2911 24.3145 18.484 24.2365 18.4915 24.2328C18.5323 24.218 18.5731 24.2068 18.6176 24.1957C18.7549 24.1586 18.8032 24.1549 18.9294 24.1475C19.0221 24.1438 19.1112 24.1512 19.204 24.1549C19.3635 24.166 19.1038 24.1252 19.2559 24.1623C19.3042 24.1734 19.3524 24.1846 19.4006 24.1957C19.4489 24.2068 19.4934 24.2217 19.5417 24.2402C19.5713 24.2514 19.6047 24.2625 19.6344 24.2736C19.5751 24.2477 19.5751 24.2514 19.6344 24.2774C19.7198 24.3256 19.8051 24.3664 19.8868 24.4221C19.9016 24.4295 20.0241 24.5297 19.9276 24.4481C19.9647 24.4777 20.0018 24.5111 20.0352 24.5408C20.1057 24.6076 20.1688 24.6781 20.2319 24.7524C20.154 24.6559 20.2504 24.782 20.2579 24.7932C20.295 24.8451 20.3284 24.9008 20.3581 24.9565C20.3729 24.9861 20.3877 25.0158 20.4026 25.0418C20.4286 25.1012 20.4286 25.1012 20.4063 25.0418C20.4174 25.0715 20.4286 25.1012 20.4397 25.1346C20.4731 25.2274 20.4917 25.3238 20.5176 25.4203C20.5585 25.5725 20.5139 25.3127 20.5251 25.4723C20.5325 25.5539 20.5362 25.6207 20.5362 25.6912C20.5399 25.9807 20.7885 26.2627 21.0928 26.2479C21.3897 26.233 21.6532 26.0029 21.6495 25.6912C21.6383 24.6744 21.0483 23.7022 20.1057 23.2865C19.0518 22.8189 17.7382 23.0564 16.9885 23.9656C16.2464 24.8637 16.1165 26.1922 16.803 27.1719C17.4487 28.0922 18.5991 28.545 19.6975 28.2481C20.8479 27.9364 21.6383 26.8676 21.6495 25.6912C21.6532 25.4018 21.3897 25.1197 21.0928 25.1346C20.7885 25.1494 20.5399 25.3795 20.5362 25.6912Z" fill="#00B8EF"/>
<path d="M14.7064 16.4171C15.0404 17.2558 15.3744 18.0982 15.7121 18.9368C16.2501 20.2839 16.7845 21.6273 17.3226 22.9743C17.4451 23.2824 17.5675 23.5904 17.69 23.8947C17.8013 24.173 18.0611 24.3697 18.3765 24.2843C18.6437 24.2101 18.8775 23.8798 18.7662 23.5978C18.4322 22.7591 18.0982 21.9167 17.7605 21.0781C17.2224 19.731 16.688 18.3876 16.1499 17.0405C16.0275 16.7325 15.905 16.4245 15.7826 16.1202C15.6712 15.8419 15.4115 15.6452 15.096 15.7306C14.8289 15.8048 14.5951 16.1351 14.7064 16.4171Z" fill="#00B8EF"/>
</svg>
