<svg width="40" height="40" viewBox="0 0 40 40" fill="none" xmlns="http://www.w3.org/2000/svg">
<path d="M4.75343 12.3069L9.6001 11.6669L16.0734 27.4536C15.6868 27.7469 15.3734 28.1336 15.1801 28.5936C14.8868 29.2869 14.8868 30.0603 15.1734 30.7536C15.6201 31.8469 16.6801 32.5069 17.7934 32.5069C18.1468 32.5069 18.5134 32.4403 18.8601 32.2936C19.5601 32.0069 20.1068 31.4669 20.3934 30.7736C20.5934 30.2869 20.6534 29.7669 20.5734 29.2603L35.5934 23.1069C35.9334 22.9669 36.1001 22.5803 35.9601 22.2403C35.8201 21.9003 35.4268 21.7403 35.0934 21.8736L20.0668 28.0403C19.7668 27.6269 19.3601 27.2936 18.8801 27.0869C18.3734 26.8736 17.8268 26.8203 17.2934 26.9136L10.6401 10.6869C10.5268 10.4069 10.2334 10.2403 9.93342 10.2803L4.58009 10.9869C4.21342 11.0336 3.96009 11.3669 4.00675 11.7336C4.05342 12.1003 4.37343 12.3603 4.75343 12.3069ZM18.3601 28.3136C18.7268 28.4669 19.0134 28.7536 19.1668 29.1269C19.3201 29.4936 19.3134 29.9003 19.1601 30.2669C19.0068 30.6336 18.7201 30.9203 18.3468 31.0736C17.5868 31.3869 16.7134 31.0203 16.4001 30.2603C16.2468 29.8936 16.2534 29.4869 16.4068 29.1203C16.5601 28.7536 16.8468 28.4669 17.2134 28.3136C17.5868 28.1603 17.9934 28.1603 18.3601 28.3136Z" fill="white"/>
<path d="M18.8401 26.0265C18.9468 26.2865 19.1934 26.4399 19.4534 26.4399C19.5401 26.4399 19.6201 26.4265 19.7068 26.3865L33.0201 20.9265C33.1868 20.8599 33.3134 20.7332 33.3801 20.5665C33.4468 20.4065 33.4468 20.2199 33.3801 20.0532L28.4001 7.89988C28.2601 7.55988 27.8734 7.39988 27.5334 7.53321L22.2668 9.69321L19.4868 10.8332L14.2201 12.9932C14.0534 13.0599 13.9268 13.1865 13.8601 13.3532C13.7934 13.5132 13.7934 13.6999 13.8601 13.8665L18.8401 26.0265ZM23.3468 13.7532L22.7534 13.7065C22.5401 13.6932 22.3268 13.7799 22.1868 13.9465L21.8068 14.4065L20.6268 11.8065L22.1734 11.1732L23.3468 13.7532ZM19.4001 12.3065L21.0401 15.9199C21.1334 16.1265 21.3334 16.2732 21.5601 16.3065C21.5868 16.3132 21.6201 16.3132 21.6468 16.3132C21.8401 16.3132 22.0334 16.2265 22.1601 16.0732L23.0001 15.0665L24.3734 15.1732C24.6068 15.1865 24.8334 15.0865 24.9734 14.8932C25.1068 14.6999 25.1334 14.4465 25.0334 14.2332L23.4134 10.6665L27.4268 9.01988L31.9068 19.9532L19.8268 24.9065L15.3468 13.9732L19.4001 12.3065Z" fill="white"/>
</svg>
