<svg width="40" height="40" viewBox="0 0 40 40" fill="none" xmlns="http://www.w3.org/2000/svg">
<path d="M26.0066 11.5266C26.0066 9.64662 24.4732 8.11328 22.5932 8.11328C20.7132 8.11328 19.1799 9.64662 19.1799 11.5266C19.1799 13.4066 20.7132 14.9399 22.5932 14.9399C24.4799 14.9399 26.0066 13.4066 26.0066 11.5266ZM20.5199 11.5266C20.5199 10.3799 21.4532 9.44661 22.5999 9.44661C23.7466 9.44661 24.6799 10.3799 24.6799 11.5266C24.6799 12.6733 23.7466 13.6066 22.5999 13.6066C21.4532 13.6066 20.5199 12.6733 20.5199 11.5266Z" fill="white"/>
<path d="M4.53345 30.3267C4.53345 30.3867 4.54678 30.4467 4.56011 30.5067C4.56678 30.52 4.56011 30.54 4.56678 30.5533C4.56678 30.56 4.57345 30.56 4.57345 30.5667C4.58678 30.5933 4.60011 30.62 4.61345 30.6467C4.63345 30.6867 4.65345 30.72 4.68011 30.7533C4.70011 30.7733 4.72011 30.7867 4.74011 30.8067C4.77345 30.84 4.80678 30.8667 4.84678 30.8933C4.85345 30.9 4.86011 30.9067 4.86678 30.9133L13.7868 35.9267C13.8201 35.9467 13.8601 35.96 13.8934 35.9667C13.9068 35.9733 13.9201 35.98 13.9268 35.98C13.9868 36 14.0468 36.0067 14.1068 36.0067C14.2068 36.0067 14.3001 35.98 14.3868 35.94C14.3934 35.94 14.4001 35.94 14.4001 35.9333L24.0001 31.06L34.5201 35.9333C34.6068 35.9733 34.7068 35.9933 34.8001 35.9933C34.9534 35.9933 35.1068 35.94 35.2334 35.8333C35.4334 35.6667 35.5134 35.3933 35.4401 35.1467L31.3734 20.7333C31.3134 20.5333 31.1668 20.3667 30.9668 20.2933L26.9668 18.7667C28.6001 16.62 30.1201 13.9667 30.1201 11.5267C30.1268 7.37333 26.7468 4 22.6001 4C18.4468 4 15.0734 7.37333 15.0734 11.5267C15.0734 14.0867 16.7468 16.88 18.4668 19.0733L15.4868 20.2L8.90011 17.5133C8.72678 17.44 8.52678 17.4467 8.35345 17.5333C8.18011 17.6133 8.05345 17.7667 8.00678 17.9533L4.55345 30.14C4.54678 30.1667 4.54678 30.2 4.54678 30.2267C4.54011 30.26 4.53345 30.2933 4.53345 30.3267ZM13.5468 34.2533L6.78011 30.4533L14.1601 27.7267L13.5468 34.2533ZM15.5068 27.68L22.3668 30.4L14.8934 34.1933L15.5068 27.68ZM25.3801 30.2333L31.5668 26.3333L33.7668 34.12L25.3801 30.2333ZM30.1801 21.42L31.1934 25L24.4668 29.2333L23.2868 22.8267C23.7734 22.3733 24.9001 21.2933 26.1001 19.86L30.1801 21.42ZM22.6001 5.33333C26.0134 5.33333 28.7934 8.11333 28.7934 11.5267C28.7934 15.3933 24.0868 20.2133 22.6001 21.64C21.1134 20.2133 16.4068 15.3933 16.4068 11.5267C16.4068 8.11333 19.1801 5.33333 22.6001 5.33333ZM21.9401 22.8533C21.9401 22.8733 21.9334 22.8867 21.9401 22.9067L23.1134 29.2533L15.6401 26.2933L15.8068 24.5467L16.1068 21.3867L19.3668 20.1533C20.4868 21.4733 21.5068 22.4533 21.9401 22.8533ZM9.08011 19.0267L14.7668 21.3467L14.5334 23.8533L14.3068 26.2467L6.19345 29.2467L9.08011 19.0267Z" fill="white"/>
</svg>
