<svg width="40" height="40" viewBox="0 0 40 40" fill="none" xmlns="http://www.w3.org/2000/svg">
<path d="M28.4533 10.0401C28.4467 10.0268 28.4467 10.0201 28.44 10.0068C28.4133 9.94017 28.3867 9.88684 28.34 9.83351C28.3333 9.82017 28.3267 9.8135 28.3133 9.80017C28.2667 9.74684 28.22 9.70017 28.1533 9.66684C28.1467 9.66017 28.1333 9.66017 28.1267 9.6535C28.12 9.6535 28.12 9.64684 28.12 9.64684L17.14 4.0735C17.0133 4.00684 16.8733 4.00017 16.7467 4.02017C16.6133 4.00017 16.48 4.00684 16.3533 4.0735L5.36667 9.64017C5.36 9.64017 5.36 9.64684 5.36 9.64684C5.34667 9.65351 5.34 9.6535 5.32667 9.66017C5.26667 9.70017 5.21333 9.74684 5.16667 9.80017C5.16 9.80684 5.16 9.8135 5.15333 9.82017C5.10667 9.88017 5.06667 9.94684 5.04 10.0201C5.04 10.0268 5.03333 10.0268 5.03333 10.0335C5.01333 10.1001 5 10.1668 5 10.2335V25.2335C5 25.4801 5.13333 25.7001 5.34667 25.8201L16.42 31.8268C16.4333 31.8335 16.4467 31.8335 16.46 31.8401C16.4733 31.8468 16.4933 31.8535 16.5067 31.8601C16.5067 31.8601 16.5133 31.8601 16.5133 31.8668C16.5333 31.8735 16.5467 31.8801 16.5667 31.8868C16.62 31.9001 16.68 31.9068 16.7333 31.9068C16.7933 31.9068 16.8467 31.9001 16.9 31.8868C16.92 31.8801 16.94 31.8735 16.9533 31.8668H16.96C16.98 31.8601 16.9933 31.8535 17.0067 31.8468C17.02 31.8401 17.0333 31.8401 17.0467 31.8335L21.96 29.1668C23.8667 32.6468 27.16 35.6601 27.3533 35.8335C27.48 35.9468 27.64 36.0068 27.8 36.0068C27.96 36.0068 28.1267 35.9468 28.2533 35.8268C28.5267 35.5735 34.98 29.5268 34.98 24.7801C34.98 21.0468 32.1133 17.9735 28.4667 17.6335V10.2335C28.4867 10.1668 28.4733 10.1001 28.4533 10.0401ZM16.7467 15.4801L7.10667 10.2535L16.7467 5.36684L26.3867 10.2535L16.7467 15.4801ZM12.14 14.5001L11.9667 18.4601L10.6067 17.7735L10.9 13.8268L12.14 14.5001ZM6.33333 11.3535L9.61333 13.1335L9.24 18.1201C9.22 18.3868 9.36667 18.6468 9.60667 18.7668L12.2867 20.1135C12.38 20.1601 12.4867 20.1868 12.5867 20.1868C12.7067 20.1868 12.82 20.1535 12.9267 20.0935C13.12 19.9801 13.2467 19.7735 13.2533 19.5468L13.4467 15.2068L16.08 16.6335V30.1201L6.33333 24.8401V11.3535ZM17.4133 30.1201V16.6335L27.1533 11.3535V17.6268C23.5067 17.9668 20.64 21.0401 20.64 24.7735C20.64 25.8135 20.9333 26.9001 21.3933 27.9668L17.4133 30.1201ZM33.6667 24.7735C33.6667 28.2801 29.2533 32.9735 27.8133 34.4068C26.3667 32.9935 21.9733 28.4001 21.9733 24.7735C21.9733 21.5535 24.6 18.9268 27.82 18.9268C31.04 18.9268 33.6667 21.5468 33.6667 24.7735Z" fill="white"/>
<path d="M24.0266 24.4935C24.0266 26.5868 25.7266 28.2868 27.8199 28.2868C29.9132 28.2868 31.6132 26.5868 31.6132 24.4935C31.6132 22.4002 29.9132 20.7002 27.8199 20.7002C25.7266 20.7002 24.0266 22.4068 24.0266 24.4935ZM30.2732 24.4935C30.2732 25.8468 29.1732 26.9535 27.8132 26.9535C26.4599 26.9535 25.3532 25.8535 25.3532 24.4935C25.3532 23.1402 26.4532 22.0335 27.8132 22.0335C29.1732 22.0335 30.2732 23.1402 30.2732 24.4935Z" fill="white"/>
</svg>
