<svg width="30" height="30" viewBox="0 0 30 30" fill="none" xmlns="http://www.w3.org/2000/svg">
<path fill-rule="evenodd" clip-rule="evenodd" d="M26.0881 12.4009H26.0135V10.5817C26.0135 7.7757 24.8925 5.08464 22.8972 3.10051C20.9019 1.11638 18.1957 0.00170898 15.3739 0.00170898C12.5522 0.00170898 9.84596 1.11638 7.85067 3.10051C5.85537 5.08464 4.73443 7.7757 4.73443 10.5817V12.4009H4.28647C2.64384 12.4009 1.37461 13.849 1.37461 15.5198V20.1611C1.35477 20.9387 1.64633 21.6923 2.18518 22.2561C2.72402 22.8199 3.466 23.1478 4.24794 23.1676C4.26081 23.1676 4.2736 23.1682 4.28647 23.1683H7.04899C7.14207 23.164 7.23338 23.1415 7.31771 23.1021C7.40204 23.0626 7.47773 23.0071 7.54046 22.9386C7.60319 22.87 7.65173 22.7899 7.68331 22.7027C7.71489 22.6155 7.72888 22.523 7.7245 22.4305C7.72388 22.4163 7.72281 22.4023 7.72128 22.3885V13.292C7.72128 12.8465 7.45999 12.4009 7.04928 12.4009H6.22771V10.5816C6.22771 8.16946 7.19133 5.8561 8.90658 4.15044C10.6218 2.44479 12.9482 1.48657 15.3739 1.48657C17.7997 1.48657 20.1261 2.44479 21.8413 4.15044C23.5566 5.8561 24.5202 8.16946 24.5202 10.5816V12.4009H23.6989C23.2883 12.4009 23.0269 12.8464 23.0269 13.292V22.3885C23.0069 22.5746 23.062 22.7609 23.1801 22.9065C23.2982 23.0521 23.4696 23.1451 23.6567 23.165C23.6707 23.1665 23.6848 23.1676 23.6989 23.1682H24.5575L24.4828 23.2796C23.9304 24.0097 23.214 24.6014 22.3909 25.0075C21.5677 25.4136 20.6606 25.6228 19.7417 25.6184C19.5588 24.7288 19.0511 23.938 18.3166 23.3985C17.5821 22.859 16.6728 22.6089 15.7639 22.6966C14.855 22.7842 14.011 23.2033 13.3944 23.8731C12.7778 24.5428 12.4324 25.4159 12.4247 26.3239C12.4345 27.302 12.8322 28.2367 13.5312 28.9249C14.2303 29.6132 15.1742 29.9992 16.1579 29.9992C17.1715 29.9829 18.1375 29.5693 18.8459 28.8483C19.3239 28.3614 19.6371 27.7384 19.7419 27.066C20.8926 27.0704 22.0285 26.8074 23.0589 26.2982C24.0894 25.789 24.9861 25.0475 25.6776 24.1329L26.3869 23.0932C27.9919 22.9826 29 21.98 29 20.532V15.8909C29 14.2946 27.8054 12.4009 26.0881 12.4009ZM6.22771 21.6832H4.28647C4.09531 21.6785 3.90694 21.6365 3.73212 21.5595C3.5573 21.4824 3.39945 21.3719 3.26758 21.2342C3.13571 21.0965 3.03241 20.9343 2.96357 20.7569C2.89474 20.5795 2.86171 20.3904 2.86639 20.2003C2.86677 20.1872 2.86727 20.1741 2.86789 20.1609V15.5197C2.86789 14.6658 3.46519 13.8861 4.28647 13.8861H6.22771V21.6832ZM17.7631 27.8094C17.5585 28.0301 17.3104 28.2066 17.0342 28.328C16.7581 28.4493 16.4598 28.5129 16.1579 28.5149C15.5731 28.5056 15.0143 28.2729 14.5973 27.8651C14.1803 27.4572 13.9371 26.9055 13.918 26.3242C13.9163 26.0355 13.9719 25.7494 14.0818 25.4822C14.1916 25.2149 14.3535 24.9719 14.5581 24.7672C14.7627 24.5624 15.006 24.3998 15.274 24.2889C15.542 24.1779 15.8294 24.1207 16.1197 24.1206C16.41 24.1205 16.6975 24.1774 16.9656 24.2882C17.2337 24.3989 17.4771 24.5613 17.6819 24.7659C17.8867 24.9705 18.0487 25.2134 18.1588 25.4805C18.2689 25.7476 18.3247 26.0338 18.3232 26.3224V26.3242C18.3386 26.5969 18.2967 26.8697 18.2003 27.1254C18.1039 27.3811 17.955 27.614 17.7631 27.8094V27.8094ZM27.5067 20.5322C27.5067 21.5345 26.536 21.6832 26.0881 21.6832H24.5202V13.8862H26.0881C26.9094 13.8862 27.5067 15.0371 27.5067 15.8909V20.532V20.5322Z" fill="#00B8EF"/>
</svg>
