<?xml version="1.0" encoding="utf-8"?>
<!-- Generator: Adobe Illustrator 17.1.0, SVG Export Plug-In . SVG Version: 6.00 Build 0)  -->
<!DOCTYPE svg PUBLIC "-//W3C//DTD SVG 1.1//EN" "http://www.w3.org/Graphics/SVG/1.1/DTD/svg11.dtd">
<svg version="1.1" id="Layer_1" xmlns="http://www.w3.org/2000/svg" xmlns:xlink="http://www.w3.org/1999/xlink" x="0px" y="0px"
	 viewBox="0 0 1920 336.2" enable-background="new 0 0 1920 336.2" xml:space="preserve">
<path fill="#FFFFFF" d="M1920,106.2c-0.1,6.9-6.3,12.5-13.9,12.5H1863c-4.4,1-8.9,1.9-13.5,2.9c-3.2,2.3-5.2,5.8-5.2,9.8v186.1
	c0,7,2.7,12.7-4.9,12.7h-56.6c-7.7,0-14-5.7-14-12.7V138.4v-7c0-1.3-0.3-2.6-0.7-3.8c-1.8-5.2-5.4-9-11.7-9h-49.7
	c-7.7,0-14-5.7-14-12.7V70.5c0-7,6.3-12.7,14-12.7H1906c2,0,3.9,0.4,5.6,1.1c4.9,2,8.4,6.5,8.4,11.6V106L1920,106.2z M1641.5,330.3
	h-47.6c-7.7,0-13.9-5.7-13.9-12.7v-47.3c0-7-3.6-8.8-7.9-3.9c0,0,0,0-5.4,5.1c-5.4,5.1-11.3,10.3-17.7,15.4c-2.5,2-5,4-7.6,6h0l0,0
	c-2.2,1.7-4.4,3.4-6.7,5.2c-1.8,1.4-3.6,2.7-5.4,4c-17.1,11.5-46.6,29.4-92.3,28.2h-21.1c-7.7,0-13.9-5.7-13.9-12.7V211.3v-31.6
	V70.4c0-7,6.3-12.7,13.9-12.7h49.1c7.7,0,13.9,5.7,13.9,12.7v102.7v25.3v41.7c0,7,4.4,10.1,9.8,6.9c0,0,3.2,0,8.3-3.4
	c5.1-3.4,10.3-7.2,15.7-11.4c8.6-6.4,17-13.4,25.4-21.1c8.3-7.7,16.1-15.5,23.4-23.3c1.5-1.7,2.9-3.4,4.3-5c1.9-2.2,3.7-4.4,5.5-6.6
	c3.1-3.8,6-7.5,8.7-11.2v-1.2V70.4c0-7,6.3-12.7,13.9-12.7h47.6c7.7,0,14,5.7,14,12.7v83.4v5.7v158
	C1655.4,324.6,1649.1,330.3,1641.5,330.3z M1577.3,31.2c-13.5,7.7-28.8,11.5-46,11.5c-16.8,0-31.9-3.8-45.4-11.5
	c-6.1-3.4-11-7.4-14.9-12c-12.4-15.7,4.2-19.2,4.2-19.2h108.2c9.8,0,14.8,6.8,11.2,15.1C1594.5,15.1,1590.8,23.5,1577.3,31.2z
	 M1350.3,330.4h-49.2c-14.6,0-18.8-8.6-20-12.5c-0.1-0.6-0.2-1.2-0.4-1.8c-0.3-1.3-0.6-2.9-0.9-4.6H1200V250h63.9
	c-2.6-8.4-5.1-16.7-7.4-24h0c-0.9-2.9-1.8-5.8-2.5-8.3c0-0.8-0.2-1.7-0.4-2.5c0,0-0.3-1.1-2.1-6c-0.2-0.6-0.4-1.2-0.7-1.9
	c-2.4-6.6-4.8-13-7.2-19.1l-0.2-0.5c-4.2-10.3-8.3-19.2-12.1-26.6c-3.9-7.5-6.4-12.3-7.5-14.5c-7,13.6-13.4,27.9-19.4,42.7
	c-0.9,2.2-1.9,4.3-2.7,6.5c-4.7,11.9-8.9,33.7-12.9,45.6c-1.6,0.1-3.1,0.2-4.7,0.3h-10.2h-4.6h-65.1c4.2-13.5,8.8-36.6,13.6-49.7
	c7-19.3,14.5-38.2,22.7-56.6c11.8-26.8,24-49.8,36.4-69c1.6-2.3,7.1-8.7,19.9-8.7h52.9c7.7,0,17.2,5,21.1,10.9
	c0,0,13.9,21.5,22.9,38.5c9,17,17.1,34.1,24.4,51.2c3.5,8.4,6.8,16.7,10,25c4.3,11.4,8.3,22.7,12,33.9c3.6,10.9,6.9,21.7,9.8,32.4
	l0.1,0.3h0.5v1.8c6.3,23.4,11.4,45,15.4,64.8C1366.2,321,1365.6,330.4,1350.3,330.4z M1082.1,113.6c0,0,0,0-6.8-0.9
	c-6.8-0.8-14-1.1-21.6-0.8c-29.5,1.1-51.9,9.3-67.1,24.7c-14.9,15-22,34.3-21.2,57.6c0,0.5,0,1,0,1.5c1,23.1,7,40.1,17.8,51.1
	c10.8,11,22.5,18.6,35,22.7c6.7,1.9,13.2,4.6,19.6,5.2c5.1,0.5,9.7,0.7,13.8,0.7h111.2v42v14.7v1h-77.8l-295.6,0.4h0h-4.2h0l-5.8,0
	c-4.5-0.1-9.8-0.5-13.1-0.7c-37.5-2.9-65.9-12.8-85.1-32.8c-24.2-25.2-38.4-53.5-42.4-84.9c-0.4-2.4-0.7-4.8-0.9-7.4
	c-0.3-2.5-0.4-5-0.5-7.4c-0.2-4.3-0.2-8.5-0.1-12.6c1.1-35.3,13.8-65,38.2-89.2c27.3-27,66.6-41.5,117.9-43.5
	c10.5-0.4,20.4-0.2,29.5,0.5c9.1,0.7,17.8,1.9,26.1,3.5l2.1,45.5c0.3,6.9-4.6,11.5-10.8,10.2c0,0,0,0-6.8-0.8
	c-6.8-0.8-14-1.1-21.6-0.8c-29.5,1.1-51.9,9.4-67.1,24.8c-13.9,14-21,31.7-21.3,52.9c0,2.1-0.1,4.1,0,6.2c1,23.1,7,40.1,17.8,51.2
	c10.8,11,22.5,18.6,35.1,22.6c6.7,1.9,13.2,3.2,19.6,3.8c5.1,0.5,9.7,0.7,13.8,0.7l94.9-0.2c-12.8-19-20.8-39.5-23.6-61.6
	c-0.4-2.4-0.7-4.8-0.9-7.4c-0.3-2.5-0.4-5-0.5-7.4c-0.1-1.7-0.1-3.3-0.1-4.9c-0.6-38.7,12.1-71,38.2-96.9
	c27.3-27,66.6-41.5,117.9-43.5c10.5-0.4,20.4-0.2,29.5,0.5c9.1,0.8,17.8,1.9,26.1,3.5l2.1,45.5
	C1093.3,110.2,1088.4,114.8,1082.1,113.6z M561.7,300c-29.9,24.2-66.6,36.2-110.1,36.2c-44,0-80.9-12.1-110.5-36.2
	c-29.7-24.1-44.5-59.4-44.5-106c0-8.4,0.5-16.3,1.4-24c0.3-2.4,0.8-4.6,1.1-7c5.3-31.7,19.2-56.9,41.9-75.4
	c29.6-24.1,66.5-36.2,110.5-36.2c43.5,0,80.2,12,110.1,36.2c28.3,22.8,43.2,55.8,44.7,98.8c0.1,2.5,0.2,5,0.2,7.5
	c0,9.5-0.7,18.5-1.9,27.1C599.8,254.5,585.5,280.8,561.7,300z M518.6,181.6c-1.7-16.5-6.6-31.2-15-44.2
	c-10.5-16.2-27.8-24.2-51.9-24.2c-24.7,0-42.1,8.1-52.3,24.2c-6.5,10.3-10.8,21.7-13.2,34.1c-1,5.4-1.7,11.1-2,16.9
	c-0.1,1.8-0.2,3.7-0.2,5.5c0,21.6,5.2,40.4,15.5,56.6c10.3,16.2,27.7,24.3,52.1,24.3c24.2,0,41.5-8.1,51.9-24.3
	c7.7-11.9,12.6-25.3,14.6-40.1c0.7-5.3,1.1-10.8,1.1-16.5C519.2,189.8,519,185.7,518.6,181.6z M140.2,268.6c-1.3,0-2.6,0-4-0.1
	c-9.5-0.2-9.7-10-9.7-10v-44.3c0-5.5,4-6.8,6.1-7.2l0.4-0.1c0.5-0.1,0.8-0.1,0.8-0.1l0,0c10.1-1.3,18.7-4.7,25.8-10.1
	c9.4-7.2,14.1-18.3,14.1-33.3c0-1.7-0.2-4.6-0.6-8.6c-0.2-2.2-0.8-4.5-1.7-6.9c-0.7-2-1.7-4-2.9-6.1c-0.8-1.5-1.8-2.9-2.8-4.2
	c-0.3-0.3-0.6-0.7-0.9-1c-0.8-0.9-1.7-1.9-2.6-2.8l-0.5-0.5l-0.2-0.1c-12.6-11.4-32.5-13.9-40.6-14.4l-0.2-0.1c-0.5,0-0.9,0-1.4,0
	c-1.3-0.1-2.1-0.1-2.1-0.1l0,0c-0.7,0-1.3,0-2,0H91c-7.7,0-14,5.7-14,12.7v1.5v184.6c0,7-6.3,12.7-13.9,12.7H13.9
	c-7.7,0-13.9-5.7-13.9-12.7V115.8V70.5c0-4.4,2.4-8.2,6.1-10.5c2.2-1.4,4.9-2.2,7.8-2.2H117c7.7,0,20.2,0.8,27.8,1.7
	c0,0,14.1,1.8,31,5.6h0l0.1,0c5.1,1.2,10.4,2.5,15.7,4.1c18,6.3,46.8,21.4,62.4,56.6c3.2,7.9,5.3,16.1,6.2,24.5
	c0.3,2.2,0.5,4.5,0.6,6.8c0,0.8,0,1.6,0.1,2.4c0,1,0.1,2,0.1,2.9c0,0.5,0,1,0,1.5c0,29.4-10.3,54.2-31,74.4
	C209.3,258.5,179.4,268.6,140.2,268.6z"/>
</svg>
